<mxfile modified="2019-10-18T13:28:07.817Z" host="www.draw.io" agent="Mozilla/5.0 (Windows NT 10.0; Win64; x64) AppleWebKit/537.36 (KHTML, like Gecko) Chrome/77.0.3865.120 Safari/537.36" etag="fAKHl1Rhn9c3YcrGRcUA" version="12.1.3" type="github" pages="1">
  <diagram id="I0bLfncfjT9ffKwwWELv" name="Happy Path">
    <mxGraphModel dx="1165" dy="502" grid="1" gridSize="10" guides="1" tooltips="1" connect="1" arrows="1" fold="1" page="1" pageScale="1" pageWidth="827" pageHeight="1169" math="0" shadow="0">
      <root>
        <mxCell id="I5Vtg4STYnl2IJugSfGF-0"/>
        <mxCell id="I5Vtg4STYnl2IJugSfGF-1" parent="I5Vtg4STYnl2IJugSfGF-0"/>
        <mxCell id="8ab2VDb99C_7O71XB3wa-0" value="Account Application WebApp" style="rounded=1;whiteSpace=wrap;html=1;verticalAlign=top;" vertex="1" parent="I5Vtg4STYnl2IJugSfGF-1">
          <mxGeometry x="185" y="1.5" width="210" height="170" as="geometry"/>
        </mxCell>
        <mxCell id="ivdo6gl_7-LOLV2pRihX-21" value="Lead" style="rounded=1;whiteSpace=wrap;html=1;verticalAlign=top;" vertex="1" parent="I5Vtg4STYnl2IJugSfGF-1">
          <mxGeometry x="230" y="30" width="130" height="130" as="geometry"/>
        </mxCell>
        <mxCell id="ivdo6gl_7-LOLV2pRihX-9" value="Submit Request" style="edgeStyle=orthogonalEdgeStyle;rounded=0;orthogonalLoop=1;jettySize=auto;html=1;exitX=1;exitY=0.5;exitDx=0;exitDy=0;entryX=0.07;entryY=0.4;entryDx=0;entryDy=0;entryPerimeter=0;" edge="1" parent="I5Vtg4STYnl2IJugSfGF-1" source="8ab2VDb99C_7O71XB3wa-1" target="ivdo6gl_7-LOLV2pRihX-0">
          <mxGeometry relative="1" as="geometry"/>
        </mxCell>
        <mxCell id="8ab2VDb99C_7O71XB3wa-1" value="Capture Info" style="rounded=1;whiteSpace=wrap;html=1;verticalAlign=top;" vertex="1" parent="I5Vtg4STYnl2IJugSfGF-1">
          <mxGeometry x="255" y="59" width="80" height="40" as="geometry"/>
        </mxCell>
        <mxCell id="ivdo6gl_7-LOLV2pRihX-10" value="Decision" style="edgeStyle=orthogonalEdgeStyle;rounded=0;orthogonalLoop=1;jettySize=auto;html=1;exitX=0.55;exitY=0.95;exitDx=0;exitDy=0;exitPerimeter=0;entryX=1;entryY=0.5;entryDx=0;entryDy=0;" edge="1" parent="I5Vtg4STYnl2IJugSfGF-1" source="ivdo6gl_7-LOLV2pRihX-0" target="ivdo6gl_7-LOLV2pRihX-1">
          <mxGeometry relative="1" as="geometry">
            <Array as="points">
              <mxPoint x="584" y="134"/>
            </Array>
          </mxGeometry>
        </mxCell>
        <mxCell id="ivdo6gl_7-LOLV2pRihX-0" value="Experian" style="ellipse;shape=cloud;whiteSpace=wrap;html=1;verticalAlign=middle;" vertex="1" parent="I5Vtg4STYnl2IJugSfGF-1">
          <mxGeometry x="490" y="50" width="170" height="73" as="geometry"/>
        </mxCell>
        <mxCell id="ivdo6gl_7-LOLV2pRihX-1" value="Capture Decision" style="rounded=1;whiteSpace=wrap;html=1;verticalAlign=top;" vertex="1" parent="I5Vtg4STYnl2IJugSfGF-1">
          <mxGeometry x="255" y="114" width="80" height="40" as="geometry"/>
        </mxCell>
        <mxCell id="ivdo6gl_7-LOLV2pRihX-3" value="SAP PI" style="rounded=1;whiteSpace=wrap;html=1;verticalAlign=top;" vertex="1" parent="I5Vtg4STYnl2IJugSfGF-1">
          <mxGeometry x="240" y="233" width="100" height="96" as="geometry"/>
        </mxCell>
        <mxCell id="ivdo6gl_7-LOLV2pRihX-4" value="&amp;nbsp;Prospect Interface&amp;nbsp;" style="rounded=1;whiteSpace=wrap;html=1;verticalAlign=top;" vertex="1" parent="I5Vtg4STYnl2IJugSfGF-1">
          <mxGeometry x="260" y="267" width="70" height="46" as="geometry"/>
        </mxCell>
        <mxCell id="ivdo6gl_7-LOLV2pRihX-5" value="SAP CRM" style="rounded=1;whiteSpace=wrap;html=1;verticalAlign=top;" vertex="1" parent="I5Vtg4STYnl2IJugSfGF-1">
          <mxGeometry x="490" y="210" width="170" height="120" as="geometry"/>
        </mxCell>
        <mxCell id="ivdo6gl_7-LOLV2pRihX-6" value="Customer (Core)" style="rounded=1;whiteSpace=wrap;html=1;verticalAlign=top;" vertex="1" parent="I5Vtg4STYnl2IJugSfGF-1">
          <mxGeometry x="540" y="267" width="70" height="46" as="geometry"/>
        </mxCell>
        <mxCell id="ivdo6gl_7-LOLV2pRihX-7" value="SAP ECC" style="rounded=1;whiteSpace=wrap;html=1;verticalAlign=top;" vertex="1" parent="I5Vtg4STYnl2IJugSfGF-1">
          <mxGeometry x="490" y="400" width="170" height="130" as="geometry"/>
        </mxCell>
        <mxCell id="ivdo6gl_7-LOLV2pRihX-8" value="Customer&lt;br&gt;(Finance)" style="rounded=1;whiteSpace=wrap;html=1;verticalAlign=top;" vertex="1" parent="I5Vtg4STYnl2IJugSfGF-1">
          <mxGeometry x="540" y="440" width="70" height="46" as="geometry"/>
        </mxCell>
        <mxCell id="I5Vtg4STYnl2IJugSfGF-2" value="" style="shadow=0;dashed=0;html=1;strokeColor=none;fillColor=#505050;labelPosition=center;verticalLabelPosition=bottom;verticalAlign=top;outlineConnect=0;align=center;shape=mxgraph.office.devices.cell_phone_android_proportional;fontColor=#858585;" vertex="1" parent="I5Vtg4STYnl2IJugSfGF-1">
          <mxGeometry x="190" y="40" width="30" height="62" as="geometry"/>
        </mxCell>
        <mxCell id="ivdo6gl_7-LOLV2pRihX-11" style="edgeStyle=orthogonalEdgeStyle;rounded=0;orthogonalLoop=1;jettySize=auto;html=1;exitX=0.5;exitY=1;exitDx=0;exitDy=0;" edge="1" parent="I5Vtg4STYnl2IJugSfGF-1" source="ivdo6gl_7-LOLV2pRihX-1" target="ivdo6gl_7-LOLV2pRihX-4">
          <mxGeometry relative="1" as="geometry"/>
        </mxCell>
        <mxCell id="ivdo6gl_7-LOLV2pRihX-12" style="edgeStyle=orthogonalEdgeStyle;rounded=0;orthogonalLoop=1;jettySize=auto;html=1;exitX=1;exitY=0.5;exitDx=0;exitDy=0;" edge="1" parent="I5Vtg4STYnl2IJugSfGF-1" source="ivdo6gl_7-LOLV2pRihX-4" target="ivdo6gl_7-LOLV2pRihX-6">
          <mxGeometry relative="1" as="geometry"/>
        </mxCell>
        <mxCell id="ivdo6gl_7-LOLV2pRihX-17" value="Create" style="text;html=1;resizable=0;points=[];align=center;verticalAlign=middle;labelBackgroundColor=#ffffff;" vertex="1" connectable="0" parent="ivdo6gl_7-LOLV2pRihX-12">
          <mxGeometry x="-0.3262" relative="1" as="geometry">
            <mxPoint as="offset"/>
          </mxGeometry>
        </mxCell>
        <mxCell id="ivdo6gl_7-LOLV2pRihX-14" style="edgeStyle=orthogonalEdgeStyle;rounded=0;orthogonalLoop=1;jettySize=auto;html=1;exitX=0.5;exitY=1;exitDx=0;exitDy=0;entryX=0;entryY=0.5;entryDx=0;entryDy=0;" edge="1" parent="I5Vtg4STYnl2IJugSfGF-1" source="ivdo6gl_7-LOLV2pRihX-4" target="ivdo6gl_7-LOLV2pRihX-8">
          <mxGeometry relative="1" as="geometry"/>
        </mxCell>
        <mxCell id="ivdo6gl_7-LOLV2pRihX-18" value="Update" style="text;html=1;resizable=0;points=[];align=center;verticalAlign=middle;labelBackgroundColor=#ffffff;" vertex="1" connectable="0" parent="ivdo6gl_7-LOLV2pRihX-14">
          <mxGeometry x="-0.2542" y="77" relative="1" as="geometry">
            <mxPoint as="offset"/>
          </mxGeometry>
        </mxCell>
        <mxCell id="ivdo6gl_7-LOLV2pRihX-19" style="edgeStyle=orthogonalEdgeStyle;rounded=0;orthogonalLoop=1;jettySize=auto;html=1;exitX=0.5;exitY=1;exitDx=0;exitDy=0;entryX=0.5;entryY=0;entryDx=0;entryDy=0;" edge="1" parent="I5Vtg4STYnl2IJugSfGF-1" source="ivdo6gl_7-LOLV2pRihX-6" target="ivdo6gl_7-LOLV2pRihX-8">
          <mxGeometry relative="1" as="geometry"/>
        </mxCell>
        <mxCell id="ivdo6gl_7-LOLV2pRihX-20" value="Customer Interface" style="text;html=1;resizable=0;points=[];align=center;verticalAlign=middle;labelBackgroundColor=#ffffff;" vertex="1" connectable="0" parent="ivdo6gl_7-LOLV2pRihX-19">
          <mxGeometry x="-0.3589" y="2" relative="1" as="geometry">
            <mxPoint as="offset"/>
          </mxGeometry>
        </mxCell>
      </root>
    </mxGraphModel>
  </diagram>
</mxfile>
